<?xml version="1.0" encoding="UTF-8"?>
<svg version="1.1" xmlns="http://www.w3.org/2000/svg" width="750" height="750">
<path d="M0 0 C1.57007813 0.84498047 1.57007813 0.84498047 3.171875 1.70703125 C13.4405037 7.34345291 22.68465818 13.67044392 31 22 C31.66 22.309375 32.32 22.61875 33 22.9375 C35.49944496 24.26533013 36.84062652 26.14876557 38.56640625 28.34765625 C40.64495638 30.74336934 43.06262849 32.64507422 45.546875 34.60546875 C47 36 47 36 48 39 C48.99 39.66 49.98 40.32 51 41 C51 41.99 51 42.98 51 44 C51.99 44.33 52.98 44.66 54 45 C59.19035063 50.43751018 62.59202688 57.37972686 66 64 C66.31227539 64.59876953 66.62455078 65.19753906 66.94628906 65.81445312 C73.64210771 78.68246824 79.35085393 91.49658037 82.8125 105.625 C83.01963623 106.45926514 83.22677246 107.29353027 83.44018555 108.15307617 C86.12037936 119.76950826 86.16289567 131.56983935 86.125 143.4375 C86.12886719 144.64470703 86.13273437 145.85191406 86.13671875 147.09570312 C86.12367289 159.28705777 85.63470571 171.08678375 82.625 182.9375 C82.41617187 183.81728516 82.20734375 184.69707031 81.9921875 185.60351562 C80.7484243 190.67336746 79.15111781 195.2486299 77 200 C76.51923512 201.43015412 76.05726258 202.86694656 75.625 204.3125 C74.24128187 208.58746075 72.36818989 212.47210002 70.28125 216.4453125 C68.91456439 219.08924003 68.91456439 219.08924003 67.65234375 222.29296875 C65.8659241 226.51645292 63.50757942 230.31824356 61.0625 234.1875 C60.63259766 234.88552734 60.20269531 235.58355469 59.75976562 236.30273438 C57.45375487 239.98045411 55.12382976 242.96003144 52 246 C51.67 246.99 51.34 247.98 51 249 C49.36661345 250.69929513 47.69387686 252.3609952 46 254 C44.66392364 255.46416628 43.32802687 256.92855223 42.00366211 258.40332031 C37.60926179 263.2934233 33.23385746 267.9910879 28 272 C27.34 272 26.68 272 26 272 C26 272.66 26 273.32 26 274 C24.68 274.33 23.36 274.66 22 275 C22 275.66 22 276.32 22 277 C19.65184066 278.574402 17.31670674 280.02231604 14.875 281.4375 C14.20984375 281.83259766 13.5446875 282.22769531 12.859375 282.63476562 C2.05648139 289 2.05648139 289 -1 289 C-1 288.01 -1 287.02 -1 286 C-0.34 286 0.32 286 1 286 C1.09925781 285.43539063 1.19851563 284.87078125 1.30078125 284.2890625 C2.1479835 281.51554007 3.46678844 279.70726689 5.1875 277.375 C8.21371831 273.16917414 10.92538252 268.87870055 13.54296875 264.41015625 C14.90428807 262.15832242 16.36090011 260.02575644 17.875 257.875 C21.52890422 252.48525152 24.256883 246.64967769 27.109375 240.8125 C28.57953493 237.81349111 30.14404677 234.89466584 31.8125 232 C33.63152456 228.79706639 34.97473608 225.62363435 36.19140625 222.15234375 C37.15045019 219.59952631 38.28433319 217.15857174 39.4375 214.6875 C43.28458826 206.30015443 46.17942222 197.90646066 48.2890625 188.921875 C48.80925258 186.78395093 49.39412758 184.66148209 50.015625 182.55078125 C58.80600833 150.84261282 53.90514586 112.64474201 38 84 C35.7837095 80.26695051 33.43279681 76.62893959 31.015625 73.0234375 C29.75398445 71.13097667 28.53392458 69.2093564 27.37890625 67.25 C25.62199537 64.38319925 23.40416601 62.34825517 21 60 C20.05406809 58.88208047 19.11702626 57.75659718 18.1875 56.625 C14.81779283 52.64183332 10.97892105 49.35673456 7 46 C6.35289062 45.42636719 5.70578125 44.85273438 5.0390625 44.26171875 C4.12253906 43.45154297 4.12253906 43.45154297 3.1875 42.625 C2.64480469 42.14289063 2.10210937 41.66078125 1.54296875 41.1640625 C-0.11513488 39.78444908 -0.11513488 39.78444908 -3 39 C-3 38.34 -3 37.68 -3 37 C-3.928125 36.731875 -4.85625 36.46375 -5.8125 36.1875 C-8.95467773 35.01688477 -9.7659085 34.27654968 -12 32 C-14.50505636 30.61525261 -16.99297907 29.31424957 -19.5625 28.0625 C-20.64712524 27.53027832 -20.64712524 27.53027832 -21.75366211 26.98730469 C-52.18012488 12.19756068 -89.53924833 7.88655963 -122.01953125 18.57421875 C-134.04431798 22.77367579 -145.46944027 28.23653097 -156.25 35 C-157.29027344 35.63808594 -157.29027344 35.63808594 -158.3515625 36.2890625 C-162.01578712 38.57744799 -164.97429291 40.88784414 -168 44 C-168.66 44 -169.32 44 -170 44 C-170.33 44.99 -170.66 45.98 -171 47 C-171.9590625 47.2165625 -171.9590625 47.2165625 -172.9375 47.4375 C-175.20311706 47.80104993 -175.20311706 47.80104993 -176.25 50.0625 C-176.62125 51.0215625 -176.62125 51.0215625 -177 52 C-177.66 52 -178.32 52 -179 52 C-179.226875 52.556875 -179.45375 53.11375 -179.6875 53.6875 C-181.35302319 56.62199324 -183.62221176 58.62221176 -186 61 C-186.495 62.485 -186.495 62.485 -187 64 C-188 65 -189 66 -190 67 C-190.680625 68.051875 -191.36125 69.10375 -192.0625 70.1875 C-192.701875 71.115625 -193.34125 72.04375 -194 73 C-194.66 73 -195.32 73 -196 73 C-196.12076904 73.56589844 -196.24153809 74.13179688 -196.3659668 74.71484375 C-197.05006078 77.18042701 -198.00752196 79.27102164 -199.14453125 81.5625 C-199.57233887 82.43519531 -200.00014648 83.30789062 -200.44091797 84.20703125 C-200.89354004 85.12871094 -201.34616211 86.05039063 -201.8125 87 C-207.19700946 98.19750176 -207.19700946 98.19750176 -211 110 C-211.17756836 110.67772461 -211.35513672 111.35544922 -211.53808594 112.05371094 C-220.20518153 146.21054466 -214.79300229 180.36661121 -198 211 C-196.45076656 213.43302432 -194.86081063 215.80091801 -193.1640625 218.1328125 C-191.94361005 220.090451 -191.43075442 221.74605243 -191 224 C-190.34 224 -189.68 224 -189 224 C-187.69026192 225.68437037 -186.45175407 227.42446157 -185.25 229.1875 C-182.1228107 233.6040187 -179.28821655 236.76001416 -175 240 C-173.33333333 241.66666667 -171.66666667 243.33333333 -170 245 C-168.6566858 246.24101773 -167.30173769 247.4695207 -165.9375 248.6875 C-164.96103516 249.55955078 -164.96103516 249.55955078 -163.96484375 250.44921875 C-162.0518194 251.95910079 -160.21448365 252.99879692 -158 254 C-158 254.66 -158 255.32 -158 256 C-157.28070313 256.27199219 -156.56140625 256.54398437 -155.8203125 256.82421875 C-153.03593462 257.98501895 -150.4992375 259.32804327 -147.875 260.8125 C-121.66432653 275.1951259 -91.14116957 279.42124187 -62 272 C-54.97645688 269.91322515 -48.91296091 266.36165712 -42.6640625 262.5859375 C-40.47586683 261.28328729 -38.29508043 260.098593 -36 259 C-36 258.34 -36 257.68 -36 257 C-34.49609375 255.58984375 -34.49609375 255.58984375 -32.4375 253.9375 C-22.05432837 245.09529377 -12.24551704 231.14404715 -11.08984375 217.19140625 C-11.06019531 216.46824219 -11.03054688 215.74507812 -11 215 C-10.96003906 214.06027344 -10.92007813 213.12054688 -10.87890625 212.15234375 C-10.56562426 197.575517 -14.63217155 187.97536443 -24.59765625 177.296875 C-28.0909521 173.95694335 -31.81736461 171.39688024 -36 169 C-37.03125 168.401875 -38.0625 167.80375 -39.125 167.1875 C-42.41447229 165.82880492 -45.47829655 165.41431805 -49 165 C-50 164 -50 164 -50.11352539 161.40795898 C-50.10828857 160.28204346 -50.10305176 159.15612793 -50.09765625 157.99609375 C-50.09443359 156.78115234 -50.09121094 155.56621094 -50.08789062 154.31445312 C-50.07951172 153.03505859 -50.07113281 151.75566406 -50.0625 150.4375 C-50.05798828 149.15423828 -50.05347656 147.87097656 -50.04882812 146.54882812 C-50.03699545 143.36583978 -50.02051068 140.18294238 -50 137 C-49.18523193 136.80591553 -48.37046387 136.61183105 -47.53100586 136.41186523 C-46.45729736 136.15091064 -45.38358887 135.88995605 -44.27734375 135.62109375 C-43.21507568 135.36513428 -42.15280762 135.1091748 -41.05834961 134.84545898 C-32.81718491 132.56724765 -25.82778465 128.16380948 -21 121 C-17.40958664 114.18931899 -15.73103104 107.6794501 -17 100 C-20.73545577 89.25291005 -28.94674559 82.0266272 -39 77 C-39 64.79 -39 52.58 -39 40 C-34.83586441 40.83282712 -32.34463388 41.66079038 -28.6875 43.5625 C-27.80449219 44.01753906 -26.92148437 44.47257812 -26.01171875 44.94140625 C-25.34785156 45.29074219 -24.68398438 45.64007813 -24 46 C-24 46.66 -24 47.32 -24 48 C-23.01 48.0928125 -23.01 48.0928125 -22 48.1875 C-17.8783325 49.30378495 -14.34249498 51.33761566 -11 54 C-11 54.66 -11 55.32 -11 56 C-10.40445313 56.0928125 -9.80890625 56.185625 -9.1953125 56.28125 C-6.49123431 57.16657097 -5.61309813 58.27960238 -3.875 60.5 C-1.80112319 63.1880384 -1.80112319 63.1880384 1 65 C1.33 65.99 1.66 66.98 2 68 C2.433125 68.433125 2.86625 68.86625 3.3125 69.3125 C12.3649913 78.3649913 16.2077517 90.44669286 16.375 102.9375 C16.2394749 115.23568213 12.43590127 125.09301363 7 136 C6.34 136 5.68 136 5 136 C4.938125 136.54398438 4.87625 137.08796875 4.8125 137.6484375 C3.6370975 141.05032357 1.46405836 143.02793849 -1 145.625 C-4.38266503 149.02862436 -4.38266503 149.02862436 -7 153 C-6.41605469 153.27070313 -5.83210937 153.54140625 -5.23046875 153.8203125 C5.4816188 159.48589996 14.32288199 171.61579122 18 183 C24.19877224 203.61765551 19.9505434 222.6494711 12 242 C11.63648438 242.9590625 11.27296875 243.918125 10.8984375 244.90625 C8.74762165 250.57181371 6.07581427 255.78120038 3 261 C2.34 261 1.68 261 1 261 C0.93296875 261.54785156 0.8659375 262.09570312 0.796875 262.66015625 C-0.33347901 265.97918591 -2.36126499 267.88975156 -4.75 270.4375 C-5.61109375 271.36433594 -6.4721875 272.29117187 -7.359375 273.24609375 C-9.87232222 275.86684491 -12.42621177 278.43916708 -15 281 C-15.825 281.86625 -16.65 282.7325 -17.5 283.625 C-19.93212586 285.93551957 -22.09504797 287.34945907 -25 289 C-25.55558594 289.40734375 -26.11117187 289.8146875 -26.68359375 290.234375 C-31.62505577 293.8176574 -36.85755094 296.55755745 -42.375 299.125 C-43.03846436 299.44944092 -43.70192871 299.77388184 -44.38549805 300.1081543 C-58.74633964 306.57110699 -74.59874599 307.72898739 -90.125 307.5625 C-90.96529755 307.55890472 -91.80559509 307.55530945 -92.6713562 307.55160522 C-107.23581711 307.46289522 -120.93712109 306.02689061 -135 302 C-135.70253906 301.80245117 -136.40507812 301.60490234 -137.12890625 301.40136719 C-149.37749777 297.81958209 -161.69819784 291.72164756 -172.10546875 284.32421875 C-174.03994221 282.93592603 -174.03994221 282.93592603 -176.34375 281.6171875 C-179.46629217 279.71611036 -182.37567238 277.61412316 -185.3125 275.4375 C-185.86228516 275.03853516 -186.41207031 274.63957031 -186.97851562 274.22851562 C-188.35763772 273.20231173 -189.6840594 272.10606172 -191 271 C-191 270.34 -191 269.68 -191 269 C-191.87591797 268.59587891 -191.87591797 268.59587891 -192.76953125 268.18359375 C-203.06366978 262.72102987 -210.71939732 251.52220407 -217 242 C-217 241.34 -217 240.68 -217 240 C-217.66 240 -218.32 240 -219 240 C-225.97593696 232.38364916 -229.80055542 221.29979391 -234 212 C-234.49886719 210.89914062 -234.99773437 209.79828125 -235.51171875 208.6640625 C-251.44847493 171.96427697 -252.02012993 130.95065214 -240 93 C-239.67 91.89269531 -239.34 90.78539062 -239 89.64453125 C-235.7471227 79.16755562 -230.48259217 69.74800156 -225.19921875 60.1796875 C-224.44033465 58.80034768 -223.7040573 57.4081146 -223 56 C-222.34 56 -221.68 56 -221 56 C-220.7525 55.29488281 -220.505 54.58976562 -220.25 53.86328125 C-218.83896341 50.63112557 -217.0749274 48.03671098 -215 45.1875 C-214.29875 44.21167969 -213.5975 43.23585937 -212.875 42.23046875 C-212.25625 41.49441406 -211.6375 40.75835937 -211 40 C-210.34 40 -209.68 40 -209 40 C-208.7215625 38.948125 -208.7215625 38.948125 -208.4375 37.875 C-206.72881923 34.45763845 -204.71486927 32.88986911 -201.78125 30.52734375 C-199.73078878 28.76916319 -198.17633256 26.73724275 -196.49609375 24.6328125 C-190.85310441 18.47414528 -183.24852951 13.12416334 -176 9 C-175.34 9 -174.68 9 -174 9 C-174 8.34 -174 7.68 -174 7 C-169.48658527 3.44788399 -164.27178195 1.18142701 -159 -1 C-157.45432011 -1.78380221 -155.91299957 -2.57623248 -154.375 -3.375 C-144.07536783 -8.5559328 -133.19579223 -12.29838378 -122 -15 C-121.2678125 -15.18481934 -120.535625 -15.36963867 -119.78125 -15.56005859 C-79.83403814 -25.25941246 -36.04157954 -19.51171842 0 0 Z " fill="#C8E8F1" transform="translate(462,149)"/>
<path d="M0 0 C30.36 0 60.72 0 92 0 C92 10.89 92 21.78 92 33 C73.52 33 55.04 33 36 33 C36 56.43 36 79.86 36 104 C40.29 104 44.58 104 49 104 C49 84.86 49 65.72 49 46 C60.55 46 72.1 46 84 46 C84 90.22 84 134.44 84 180 C72.45 180 60.9 180 49 180 C49 165.48 49 150.96 49 136 C44.71 136 40.42 136 36 136 C36.33 155.8 36.66 175.6 37 196 C45.311875 196.04125 53.62375 196.0825 62.1875 196.125 C64.78391357 196.14320801 67.38032715 196.16141602 70.05541992 196.18017578 C72.15543411 196.18602694 74.2554506 196.19112101 76.35546875 196.1953125 C77.41173462 196.20554443 78.46800049 196.21577637 79.55627441 196.22631836 C89.7673327 196.22865954 99.87432783 195.59367202 109.09765625 190.90234375 C111.04788669 189.97728578 112.89504846 189.45474454 115 189 C115 188.34 115 187.68 115 187 C116.93359375 185.2734375 116.93359375 185.2734375 119.4375 183.375 C120.26121094 182.74335938 121.08492188 182.11171875 121.93359375 181.4609375 C124 180 124 180 125 180 C123.85518288 192.36402485 120.1823097 205.98659168 110.44140625 214.3359375 C108.68236169 215.67654883 106.89078564 216.85313002 105 218 C104.4121875 218.3609375 103.824375 218.721875 103.21875 219.09375 C77.74938536 232.43484576 12.35627059 225 0 225 C0 150.75 0 76.5 0 0 Z " fill="#FCFCFD" transform="translate(315,180)"/>
<path d="M0 0 C1.13050781 -0.02835937 2.26101563 -0.05671875 3.42578125 -0.0859375 C7.50542402 0.49058687 8.89936434 1.34278512 11.6875 4.375 C13.21986316 7.20005913 14.37107325 10.1195129 15.5 13.125 C15.81130859 13.91777344 16.12261719 14.71054687 16.44335938 15.52734375 C17.20460428 17.47144613 17.94787816 19.42256885 18.6875 21.375 C18.74284912 20.77437744 18.79819824 20.17375488 18.85522461 19.55493164 C19.10720782 16.84866869 19.3660117 14.14310116 19.625 11.4375 C19.71201172 10.49197266 19.79902344 9.54644531 19.88867188 8.57226562 C19.97568359 7.67314453 20.06269531 6.77402344 20.15234375 5.84765625 C20.230896 5.01500244 20.30944824 4.18234863 20.39038086 3.32446289 C20.6875 1.375 20.6875 1.375 21.6875 0.375 C23.83144519 0.2758243 25.97876732 0.2452985 28.125 0.25 C29.29933594 0.24742187 30.47367187 0.24484375 31.68359375 0.2421875 C34.6875 0.375 34.6875 0.375 36.6875 1.375 C36.59662109 3.04369141 36.59662109 3.04369141 36.50390625 4.74609375 C36.00742369 14.47254753 35.65015476 24.19328978 35.43359375 33.9296875 C35.40248253 35.31309074 35.40248253 35.31309074 35.3707428 36.72444153 C35.26652706 41.42286629 35.16953189 46.12133544 35.08032227 50.82006836 C35.04325462 52.5740586 35.00606905 54.32804634 34.96875 56.08203125 C34.94843971 57.31498428 34.94843971 57.31498428 34.92771912 58.57284546 C34.80072069 64.26177931 34.80072069 64.26177931 33.6875 65.375 C30.99095146 65.44819621 28.32058542 65.46742537 25.625 65.4375 C24.86638672 65.43298828 24.10777344 65.42847656 23.32617188 65.42382812 C21.44658129 65.4120068 19.56703101 65.39407078 17.6875 65.375 C17.38980713 64.59785645 17.09211426 63.82071289 16.78540039 63.02001953 C15.44131065 59.5129453 14.09567523 56.00646616 12.75 52.5 C12.28142578 51.27667969 11.81285156 50.05335938 11.33007812 48.79296875 C10.88212891 47.62636719 10.43417969 46.45976563 9.97265625 45.2578125 C9.35209351 43.63963623 9.35209351 43.63963623 8.71899414 41.98876953 C7.76013528 39.44722133 7.76013528 39.44722133 6.6875 37.375 C6.66244385 38.15214355 6.6373877 38.92928711 6.61157227 39.72998047 C6.49583204 43.23683069 6.37300648 46.74339745 6.25 50.25 C6.21068359 51.47332031 6.17136719 52.69664062 6.13085938 53.95703125 C6.08896484 55.12363281 6.04707031 56.29023437 6.00390625 57.4921875 C5.96724854 58.57097168 5.93059082 59.64975586 5.89282227 60.76123047 C5.6875 63.375 5.6875 63.375 4.6875 65.375 C2.04159986 65.40184679 -0.60403096 65.42176357 -3.25 65.4375 C-4.00474609 65.44587891 -4.75949219 65.45425781 -5.53710938 65.46289062 C-7.46244313 65.47152441 -9.38785581 65.42724333 -11.3125 65.375 C-12.3125 64.375 -12.3125 64.375 -12.38183594 62.33837891 C-12.28518542 59.22501014 -12.18392698 56.11252698 -12.0625 53 C-12.01730225 51.8251001 -11.97210449 50.6502002 -11.92553711 49.43969727 C-11.47408081 39.0454375 -10.72639823 28.6809893 -9.875 18.3125 C-9.81364868 17.53167053 -9.75229736 16.75084106 -9.68908691 15.9463501 C-9.51227541 13.72238011 -9.32275255 11.4998861 -9.12890625 9.27734375 C-9.02006104 7.99335693 -8.91121582 6.70937012 -8.79907227 5.38647461 C-7.88671155 -0.2602737 -5.09829295 0.05773831 0 0 Z " fill="#FFFFFF" transform="translate(367.3125,482.625)"/>
<path d="M0 0 C3.66150966 4.16654547 4.38484656 8.04945376 4.3671875 13.453125 C3.8069372 17.33911642 2.04514989 20.37211644 0.09375 23.73828125 C-1.29023847 26.18145472 -1.29023847 26.18145472 -1 30 C-0.505 30.886875 -0.01 31.77375 0.5 32.6875 C2.78231501 37.7276123 2.83743522 42.09026745 1.30859375 47.40234375 C-0.81063937 52.73146135 -3.23218196 55.82145464 -8 59 C-11.72450889 60.33582768 -15.47122641 60.11320942 -19.390625 60.09765625 C-20.09523865 60.0962413 -20.79985229 60.09482635 -21.52581787 60.09336853 C-23.76725584 60.08778933 -26.00859243 60.07524073 -28.25 60.0625 C-29.77343605 60.05748231 -31.29687368 60.05291987 -32.8203125 60.04882812 C-36.54690772 60.03782674 -40.27344396 60.02057646 -44 60 C-44.45152447 47.34006912 -43.10282822 34.78398178 -42 22.1875 C-41.8067888 19.93428786 -41.61407628 17.68103289 -41.421875 15.42773438 C-40.95366745 9.95131576 -40.47929708 4.47545862 -40 -1 C-27.95588635 -4.55463915 -10.44299619 -8.91475285 0 0 Z M-24 12 C-25.44524884 16.42605006 -25.44524884 16.42605006 -26 21 C-20.65821762 20.39284753 -20.65821762 20.39284753 -16 18 C-15.18415432 14.94091587 -15.18415432 14.94091587 -15 12 C-17.97 12 -20.94 12 -24 12 Z M-26 36 C-26.33 38.97 -26.66 41.94 -27 45 C-23.53734736 44.6852134 -21.41414041 44.29733158 -18.5625 42.25 C-16.69615603 40.07666568 -16.69615603 40.07666568 -17.25 37.25 C-17.4975 36.5075 -17.745 35.765 -18 35 C-22.0404226 34.83830958 -22.0404226 34.83830958 -26 36 Z " fill="#FFFFFF" transform="translate(527,488)"/>
<path d="M0 0 C1 1 1 1 1.09765625 4.16015625 C1.08605469 5.44792969 1.07445312 6.73570312 1.0625 8.0625 C1.05347656 9.35285156 1.04445313 10.64320313 1.03515625 11.97265625 C1.02355469 12.97167969 1.01195312 13.97070312 1 15 C-3.73269818 17.32739684 -8.45299065 17.61190828 -13.625 18.0625 C-15.32580065 18.21700216 -17.02633855 18.37443196 -18.7265625 18.53515625 C-19.47502441 18.600979 -20.22348633 18.66680176 -20.99462891 18.73461914 C-23.20264968 18.96253008 -23.20264968 18.96253008 -26 20 C-26.33 21.98 -26.66 23.96 -27 26 C-26.34644531 25.83628906 -25.69289063 25.67257812 -25.01953125 25.50390625 C-21.23008226 24.87151437 -17.51509049 24.89303291 -13.6875 24.9375 C-12.94693359 24.94201172 -12.20636719 24.94652344 -11.44335938 24.95117188 C-9.62887101 24.96287825 -7.81442466 24.98081102 -6 25 C-4.82364703 27.35270593 -4.86640641 28.820752 -4.875 31.4375 C-4.87113281 32.61119141 -4.87113281 32.61119141 -4.8671875 33.80859375 C-5 36 -5 36 -6 39 C-9.10356432 39.50378767 -12.20794223 40.00237413 -15.3125 40.5 C-16.19357422 40.64308594 -17.07464844 40.78617188 -17.98242188 40.93359375 C-18.82998047 41.06894531 -19.67753906 41.20429687 -20.55078125 41.34375 C-21.33106689 41.46943359 -22.11135254 41.59511719 -22.9152832 41.72460938 C-25 42 -25 42 -28 42 C-28 44.31 -28 46.62 -28 49 C-26.2984375 48.7525 -26.2984375 48.7525 -24.5625 48.5 C-19.70578533 47.95430172 -14.88132052 47.88724539 -10 47.875 C-8.85059937 47.86823242 -8.85059937 47.86823242 -7.67797852 47.86132812 C-2.12372938 47.87627062 -2.12372938 47.87627062 -1 49 C-0.84820622 51.30901696 -0.77818878 53.62367069 -0.75 55.9375 C-0.72421875 57.20464844 -0.6984375 58.47179687 -0.671875 59.77734375 C-0.78015625 60.84082031 -0.8884375 61.90429688 -1 63 C-4.89373597 65.59582398 -8.34190712 65.45965004 -12.875 65.625 C-14.18259277 65.68192017 -14.18259277 65.68192017 -15.51660156 65.73999023 C-25.34222633 66.12590941 -35.16898849 66.08883444 -45 66 C-45.71109832 23.19188139 -45.71109832 23.19188139 -42 3 C-40.01498657 1.01498657 -36.18321929 1.6066906 -33.45703125 1.46484375 C-32.69581467 1.42186661 -31.93459808 1.37888947 -31.15031433 1.33460999 C-29.53384326 1.24423246 -27.91724425 1.15611968 -26.30053711 1.07006836 C-23.84003609 0.93896719 -21.37998393 0.80118106 -18.91992188 0.66210938 C-17.34898027 0.57512382 -15.77801729 0.48852321 -14.20703125 0.40234375 C-13.47555374 0.36173325 -12.74407623 0.32112274 -11.99043274 0.27928162 C-7.99067751 0.06803823 -4.00456008 -0.13766514 0 0 Z " fill="#FFFFFF" transform="translate(352,482)"/>
<path d="M0 0 C2.62792969 0.14575195 2.62792969 0.14575195 4.62792969 2.14575195 C4.82324219 5.18481445 4.82324219 5.18481445 4.75292969 8.77075195 C4.73488281 9.95926758 4.71683594 11.1477832 4.69824219 12.37231445 C4.67503906 13.28754883 4.65183594 14.2027832 4.62792969 15.14575195 C1.05714512 16.7371722 -2.00055997 17.47423718 -5.89160156 17.77856445 C-7.42397461 17.90424805 -7.42397461 17.90424805 -8.98730469 18.0324707 C-10.04240234 18.11110352 -11.0975 18.18973633 -12.18457031 18.27075195 C-13.25900391 18.35711914 -14.3334375 18.44348633 -15.44042969 18.5324707 C-18.08383674 18.74394327 -20.72759821 18.9481235 -23.37207031 19.14575195 C-23.37207031 21.12575195 -23.37207031 23.10575195 -23.37207031 25.14575195 C-22.77144775 25.14051514 -22.1708252 25.13527832 -21.55200195 25.12988281 C-18.84620193 25.10917182 -16.14041855 25.0961107 -13.43457031 25.08325195 C-12.48904297 25.07487305 -11.54351562 25.06649414 -10.56933594 25.05786133 C-9.2206543 25.05302734 -9.2206543 25.05302734 -7.84472656 25.0480957 C-6.59574585 25.04024048 -6.59574585 25.04024048 -5.3215332 25.03222656 C-3.37207031 25.14575195 -3.37207031 25.14575195 -2.37207031 26.14575195 C-2.29962978 28.16539394 -2.28829843 30.18742319 -2.30957031 32.20825195 C-2.31859375 33.31297852 -2.32761719 34.41770508 -2.33691406 35.5559082 C-2.34851563 36.41055664 -2.36011719 37.26520508 -2.37207031 38.14575195 C-5.19734568 39.71472898 -7.49049079 40.457594 -10.70019531 40.77856445 C-11.49941406 40.86235352 -12.29863281 40.94614258 -13.12207031 41.0324707 C-13.94707031 41.11110352 -14.77207031 41.18973633 -15.62207031 41.27075195 C-16.46253906 41.35711914 -17.30300781 41.44348633 -18.16894531 41.5324707 C-20.23595254 41.74386917 -22.30392959 41.94574657 -24.37207031 42.14575195 C-24.37207031 44.45575195 -24.37207031 46.76575195 -24.37207031 49.14575195 C-23.23640625 48.98333008 -22.10074219 48.8209082 -20.93066406 48.65356445 C-16.41881966 48.09070267 -11.97657372 47.99699256 -7.43457031 48.02075195 C-6.66822266 48.01688477 -5.901875 48.01301758 -5.11230469 48.0090332 C0.50115506 48.01897733 0.50115506 48.01897733 1.62792969 49.14575195 C1.70106535 51.67624597 1.72040496 54.17880032 1.69042969 56.70825195 C1.68591797 57.41916992 1.68140625 58.13008789 1.67675781 58.86254883 C1.66493833 60.62365209 1.64700232 62.38471231 1.62792969 64.14575195 C-1.72047412 65.81995386 -5.49552615 65.5391925 -9.18457031 65.70825195 C-10.06153564 65.74998535 -10.93850098 65.79171875 -11.84204102 65.8347168 C-18.58093815 66.12716739 -25.31462117 66.25150567 -32.05957031 66.27075195 C-32.97391846 66.27534424 -33.8882666 66.27993652 -34.83032227 66.28466797 C-41.24849557 66.2693267 -41.24849557 66.2693267 -42.37207031 65.14575195 C-42.41388741 62.85440432 -42.38182291 60.56168152 -42.32128906 58.27075195 C-42.29414322 57.20794006 -42.29414322 57.20794006 -42.26644897 56.12365723 C-42.20413637 53.79744633 -42.13276668 51.47164449 -42.05957031 49.14575195 C-42.03595428 48.35885986 -42.01233826 47.57196777 -41.98800659 46.76123047 C-41.67046326 36.37429418 -41.22411915 26.00887269 -40.43457031 15.64575195 C-40.36004639 14.61579102 -40.28552246 13.58583008 -40.20874023 12.5246582 C-40.12986572 11.58493164 -40.05099121 10.64520508 -39.96972656 9.67700195 C-39.86930054 8.46367187 -39.86930054 8.46367187 -39.7668457 7.22583008 C-39.37207031 5.14575195 -39.37207031 5.14575195 -37.37207031 2.14575195 C-34.8315586 1.73637949 -32.50665823 1.51640101 -29.95019531 1.4152832 C-29.21258972 1.37513596 -28.47498413 1.33498871 -27.71502686 1.29362488 C-25.35117674 1.16837983 -22.98689637 1.06327522 -20.62207031 0.95825195 C-19.04387874 0.87685015 -17.46575192 0.79418257 -15.88769531 0.71020508 C-10.59270496 0.43705414 -5.29696534 0.22895224 0 0 Z " fill="#2DB2D0" transform="translate(78.3720703125,481.854248046875)"/>
<path d="M0 0 C4.92268609 5.96689224 6.01953055 14.16075679 7.5 21.5625 C7.71100342 22.59874512 7.92200684 23.63499023 8.1394043 24.70263672 C9.63901905 32.1606982 11.04427031 39.63503119 12.375 47.125 C12.54636475 48.07769775 12.71772949 49.03039551 12.89428711 50.01196289 C13.68073221 54.56401028 14.27063032 58.85946465 14.0625 63.5 C11.08327407 63.52683987 8.10428705 63.54676037 5.125 63.5625 C3.84979492 63.57506836 3.84979492 63.57506836 2.54882812 63.58789062 C1.73994141 63.59111328 0.93105469 63.59433594 0.09765625 63.59765625 C-0.6512085 63.60289307 -1.40007324 63.60812988 -2.17163086 63.61352539 C-3.9375 63.5 -3.9375 63.5 -4.9375 62.5 C-5.00976502 60.64712498 -5.0213122 58.79166122 -5 56.9375 C-4.99097656 55.92558594 -4.98195312 54.91367187 -4.97265625 53.87109375 C-4.96105469 53.08863281 -4.94945312 52.30617188 -4.9375 51.5 C-5.61296875 51.644375 -6.2884375 51.78875 -6.984375 51.9375 C-7.87640625 52.123125 -8.7684375 52.30875 -9.6875 52.5 C-11.01007813 52.7784375 -11.01007813 52.7784375 -12.359375 53.0625 C-14.9375 53.5 -14.9375 53.5 -18.9375 53.5 C-19.5975 56.8 -20.2575 60.1 -20.9375 63.5 C-23.75006281 63.52684312 -26.56237241 63.54676188 -29.375 63.5625 C-30.17744141 63.57087891 -30.97988281 63.57925781 -31.80664062 63.58789062 C-33.85045221 63.5965143 -35.89433902 63.5522815 -37.9375 63.5 C-38.2675 63.17 -38.5975 62.84 -38.9375 62.5 C-38.46762188 55.60575379 -36.59892599 49.26687534 -34.5625 42.6875 C-34.04598877 41.01204102 -34.04598877 41.01204102 -33.51904297 39.30273438 C-22.73862023 5.30112023 -22.73862023 5.30112023 -16.9375 -0.5 C-11.46929806 -2.32273398 -5.15300878 -2.63132363 0 0 Z M-10.9375 25.5 C-12.4225 30.945 -12.4225 30.945 -13.9375 36.5 C-11.9575 36.5 -9.9775 36.5 -7.9375 36.5 C-8.2675 32.87 -8.5975 29.24 -8.9375 25.5 C-9.5975 25.5 -10.2575 25.5 -10.9375 25.5 Z M3.0625 50.5 C2.7325 51.49 2.4025 52.48 2.0625 53.5 C3.0525 53.83 4.0425 54.16 5.0625 54.5 C6.25 56.5625 6.25 56.5625 7.0625 58.5 C6.7325 56.19 6.4025 53.88 6.0625 51.5 C5.0725 51.17 4.0825 50.84 3.0625 50.5 Z " fill="#2DB2D0" transform="translate(123.9375,484.5)"/>
<path d="M0 0 C0.73798828 -0.02900391 1.47597656 -0.05800781 2.23632812 -0.08789062 C7.50168446 -0.14873474 10.36459205 0.87954416 14.5625 4.3125 C21.29937225 11.20248298 21.98002218 18.4501946 21.92382812 27.68408203 C21.62285589 39.74113336 17.63860961 49.32725986 9.5625 58.3125 C2.34466871 64.98558931 -4.93368934 65.6027094 -14.3125 65.4375 C-15.77429688 65.42396484 -15.77429688 65.42396484 -17.265625 65.41015625 C-19.65650728 65.38671623 -22.04687261 65.35390442 -24.4375 65.3125 C-24.5732595 55.33166271 -24.22235798 45.43976426 -23.63793945 35.47973633 C-23.49956557 33.11758394 -23.36748664 30.75514108 -23.23632812 28.39257812 C-22.78204633 20.35030662 -22.25431427 12.3278336 -21.4375 4.3125 C-20.220625 3.838125 -19.00375 3.36375 -17.75 2.875 C-17.06550781 2.60816406 -16.38101563 2.34132813 -15.67578125 2.06640625 C-10.46999572 0.31297413 -5.44466088 0.07095562 0 0 Z M-6.1496582 17.4777832 C-7.93243841 20.01761131 -7.77942018 21.77152842 -7.73046875 24.85546875 C-7.72080078 25.92861328 -7.71113281 27.00175781 -7.70117188 28.10742188 C-7.67603516 29.22697266 -7.65089844 30.34652344 -7.625 31.5 C-7.60469727 33.19672852 -7.60469727 33.19672852 -7.58398438 34.92773438 C-7.54859958 37.72313317 -7.49922948 40.51757892 -7.4375 43.3125 C-8.0975 43.6425 -8.7575 43.9725 -9.4375 44.3125 C-9.1075 45.6325 -8.7775 46.9525 -8.4375 48.3125 C-4.03294334 47.2881845 -1.30423502 45.86810116 1.4609375 42.2109375 C5.01110818 36.09255825 6.25965229 29.2840229 5.5625 22.3125 C4.1976132 18.91008176 4.1976132 18.91008176 2.5625 16.3125 C-2.02843573 15.86504326 -2.02843573 15.86504326 -6.1496582 17.4777832 Z " fill="#FFFFFF" transform="translate(606.4375,482.6875)"/>
<path d="M0 0 C0.70447266 -0.02215576 1.40894531 -0.04431152 2.13476562 -0.06713867 C8.50810582 -0.0408584 12.64585779 2.17826248 17.4375 6.4375 C23.77107159 17.2950513 22.98936324 28.85934714 20.02636719 40.5534668 C18.41640547 46.32113421 16.11470613 50.86988616 12.1875 55.4375 C11.63964844 56.09363281 11.09179688 56.74976563 10.52734375 57.42578125 C6.06522658 62.33512656 1.2665406 65.07034826 -5.42724609 65.67285156 C-8.22863324 65.73132736 -11.01161396 65.70033418 -13.8125 65.625 C-14.77800781 65.61146484 -15.74351562 65.59792969 -16.73828125 65.58398438 C-19.09695425 65.54895458 -21.45441771 65.49984084 -23.8125 65.4375 C-24.66587795 61.82086144 -24.8736281 58.6656798 -24.66650391 54.96044922 C-24.60959381 53.88938934 -24.55268372 52.81832947 -24.49404907 51.71481323 C-24.4264035 50.56884674 -24.35875793 49.42288025 -24.2890625 48.2421875 C-24.22343109 47.05779083 -24.15779968 45.87339417 -24.09017944 44.65310669 C-23.95021714 42.15316785 -23.80712736 39.65340241 -23.66113281 37.15380859 C-23.43795958 33.32039414 -23.22603778 29.48647755 -23.015625 25.65234375 C-22.87827133 23.22392051 -22.74027255 20.79553365 -22.6015625 18.3671875 C-22.53796539 17.21717255 -22.47436829 16.06715759 -22.40884399 14.8822937 C-22.34562958 13.81753815 -22.28241516 12.75278259 -22.21728516 11.65576172 C-22.16319489 10.71820038 -22.10910461 9.78063904 -22.05337524 8.81466675 C-21.8125 6.4375 -21.8125 6.4375 -20.8125 3.4375 C-14.31193573 0.5337553 -7.02898168 0.11914831 0 0 Z M-6.8125 18.4375 C-7.09820033 21.31512083 -7.27895597 24.11550655 -7.375 27 C-7.44314005 28.63811264 -7.51342818 30.27613744 -7.5859375 31.9140625 C-7.62041992 32.69813477 -7.65490234 33.48220703 -7.69042969 34.29003906 C-7.8353476 36.83943497 -8.13896672 39.34776703 -8.5 41.875 C-9.19562904 45.54019959 -9.19562904 45.54019959 -6.8125 48.4375 C-1.72095117 46.35459366 0.57874787 44.28232538 3.1875 39.4375 C5.59263644 33.4246589 6.02760196 26.84214829 5.1875 20.4375 C4.01773931 18.06217368 4.01773931 18.06217368 2.1875 16.4375 C-2.84824298 15.76473513 -2.84824298 15.76473513 -6.8125 18.4375 Z " fill="#FFFFFF" transform="translate(654.8125,482.5625)"/>
<path d="M0 0 C0.7425 -0.02900391 1.485 -0.05800781 2.25 -0.08789062 C7.53394637 -0.14857199 10.41602122 0.85913907 14.625 4.3125 C20.87948485 10.85127961 22.49401203 17.47676607 22.625 26.3125 C21.94774711 39.16525487 17.84304841 50.14945024 8.78125 59.46484375 C0.03667078 66.95793428 -10.70619296 65.77555611 -21.58422852 65.48950195 C-23.375 65.3125 -23.375 65.3125 -24.375 64.3125 C-24.41670771 62.78302701 -24.38483856 61.25149646 -24.32421875 59.72265625 C-24.28611084 58.7260498 -24.24800293 57.72944336 -24.20874023 56.70263672 C-24.16048096 55.6045166 -24.11222168 54.50639648 -24.0625 53.375 C-24.01617432 52.24594238 -23.96984863 51.11688477 -23.92211914 49.95361328 C-23.26569919 34.72999558 -22.31676984 19.52064349 -21.375 4.3125 C-19.95898286 3.83141725 -18.54215563 3.35271859 -17.125 2.875 C-16.33609375 2.60816406 -15.5471875 2.34132813 -14.734375 2.06640625 C-9.77492218 0.48168043 -5.20340924 0.06705424 0 0 Z M-6.375 17.3125 C-6.85058924 20.44395076 -6.85058924 20.44395076 -7 24.1875 C-7.03794678 24.85918213 -7.07589355 25.53086426 -7.11499023 26.22290039 C-7.41353371 31.91959736 -7.48172102 37.60885457 -7.375 43.3125 C-8.035 43.6425 -8.695 43.9725 -9.375 44.3125 C-8.385 45.6325 -7.395 46.9525 -6.375 48.3125 C-0.53241462 45.72827954 1.56138493 43.4653313 3.8984375 37.53125 C5.99556711 31.12711225 6.76751694 24.67284395 4.5625 18.1875 C2.6428714 15.94435423 2.6428714 15.94435423 -0.9375 15.9375 C-4.2300076 16.0951798 -4.2300076 16.0951798 -6.375 17.3125 Z " fill="#FFFFFF" transform="translate(430.375,482.6875)"/>
<path d="M0 0 C1.77503906 0.03480469 1.77503906 0.03480469 3.5859375 0.0703125 C5.36871094 0.09738281 5.36871094 0.09738281 7.1875 0.125 C8.10273437 0.14820313 9.01796875 0.17140625 9.9609375 0.1953125 C12.07226931 3.61416701 12.09107376 5.93676148 11.71875 9.89453125 C11.57348877 11.57421997 11.57348877 11.57421997 11.42529297 13.2878418 C11.31330566 14.47418213 11.20131836 15.66052246 11.0859375 16.8828125 C10.19149222 27.36209981 9.69406715 37.68358597 9.9609375 48.1953125 C14.4159375 47.7003125 14.4159375 47.7003125 18.9609375 47.1953125 C19.93772646 42.98596256 20.24182885 38.81718839 20.4609375 34.515625 C20.50154297 33.78463593 20.54214844 33.05364685 20.58398438 32.30050659 C20.71303265 29.97394615 20.83748112 27.64717592 20.9609375 25.3203125 C21.08457806 23.00060303 21.20935023 20.68098516 21.33789062 18.36154175 C21.41761816 16.9225111 21.49461426 15.48332546 21.56835938 14.04397583 C22.23929323 1.91695677 22.23929323 1.91695677 23.9609375 0.1953125 C26.10488269 0.0961368 28.25220482 0.065611 30.3984375 0.0703125 C31.57277344 0.06773437 32.74710938 0.06515625 33.95703125 0.0625 C36.9609375 0.1953125 36.9609375 0.1953125 38.9609375 1.1953125 C39.1089448 10.24020293 38.91570834 19.27947368 38.6484375 28.3203125 C38.61472046 29.94525635 38.61472046 29.94525635 38.58032227 31.60302734 C38.26722976 40.98160324 37.50894159 51.93941608 30.9609375 59.1953125 C22.19573553 65.80987729 13.60743103 65.95730952 2.9609375 65.1953125 C-1.32760791 64.02266337 -3.46281007 62.07889956 -5.9140625 58.3203125 C-10.62527361 45.23361498 -7.97415845 29.81501636 -6.6640625 16.2578125 C-6.56937683 15.23868774 -6.56937683 15.23868774 -6.47277832 14.19897461 C-6.28905242 12.25013831 -6.0901296 10.30275303 -5.890625 8.35546875 C-5.77541504 7.21730713 -5.66020508 6.07914551 -5.54150391 4.90649414 C-4.81565745 0.98981535 -3.98211511 0.25591999 0 0 Z M34.9609375 4.1953125 C35.9609375 7.1953125 35.9609375 7.1953125 35.9609375 7.1953125 Z " fill="#FFFFFF" transform="translate(541.0390625,482.8046875)"/>
<path d="M0 0 C4.43602978 3.83656629 4.61126512 7.82494628 5.01953125 13.37890625 C5 16 5 16 4 20 C-0.95 20 -5.9 20 -11 20 C-11.33 17.03 -11.66 14.06 -12 11 C-15.07365696 11.63171522 -15.07365696 11.63171522 -15.875 13.75 C-16.05565498 17.00178958 -14.88018406 18.36148807 -13 21 C-10.06767469 23.37143045 -7.00947151 25.47423225 -3.91015625 27.62109375 C0.42647546 31.16607189 3.55419636 35.294714 4.23828125 40.98046875 C4.46004276 47.57495567 3.10252855 52.65690105 -1.4609375 57.57421875 C-7.66832699 63.07264243 -15.11203394 62.68818092 -23.02832031 62.23095703 C-27.99383804 61.64931021 -32.94445475 59.92259043 -37 57 C-38.12355868 54.12816535 -38.23472729 52.67587304 -37.22265625 49.76171875 C-36.64837891 48.73498047 -36.64837891 48.73498047 -36.0625 47.6875 C-35.68222656 46.99011719 -35.30195313 46.29273438 -34.91015625 45.57421875 C-34.60980469 45.05472656 -34.30945313 44.53523437 -34 44 C-30.18404856 44.38159514 -27.34903579 44.81479734 -23.9375 46.625 C-20.43884157 48.2626699 -18.67377539 47.96217927 -15 47 C-14.88364895 44.70218446 -14.88364895 44.70218446 -16 42 C-19.09600225 39.12017745 -22.69282135 36.87145243 -26.203125 34.53125 C-30.92083777 31.24632407 -33.38651725 28.74803229 -35 23 C-35.86836371 16.54929813 -33.92374484 10.70990168 -31 5 C-23.98767312 -3.74805136 -9.35934566 -6.62002498 0 0 Z " fill="#2DB2D0" transform="translate(179,486)"/>
<path d="M0 0 C3.40295088 7.21035084 6.39132352 14.4654428 9 22 C12.3892177 14.69058717 15.75093623 7.37287547 19 0 C25.93 0.495 25.93 0.495 33 1 C34.08628794 6.4314397 33.70785371 7.59639721 31.61328125 12.48046875 C31.35500046 13.09336258 31.09671967 13.70625641 30.83061218 14.33772278 C30.00346848 16.29312134 29.15856449 18.24022405 28.3125 20.1875 C27.7624434 21.47669008 27.21360349 22.7664 26.66601562 24.05664062 C26.39817764 24.68655914 26.13033966 25.31647766 25.85438538 25.96548462 C25.31972593 27.2229419 24.78508839 28.4804085 24.25047302 29.73788452 C23.09885621 32.44156717 21.93785415 35.13875036 20.73657227 37.82080078 C18.28417255 43.48052335 17.39017917 48.34780997 17.3125 54.5 C17.09038462 62.81923077 17.09038462 62.81923077 16 65 C10.72 65 5.44 65 0 65 C-1.21307318 61.36078046 -0.7096843 59.10879753 -0.234375 55.30859375 C0.5905026 46.34982509 -1.99880982 39.29088281 -5.25 31.0625 C-5.76176629 29.70607563 -6.27089246 28.34865217 -6.77734375 26.99023438 C-8.15513968 23.31507417 -9.57212253 19.65602357 -11 16 C-13.97479943 8.37800852 -13.97479943 8.37800852 -14.1875 5.1875 C-12.51324894 2.10335331 -10.43242652 1.59593359 -7.203125 0.48046875 C-4.7469341 -0.0551899 -2.50651765 -0.08325845 0 0 Z M14 55 C15 59 15 59 15 59 Z " fill="#FFFFFF" transform="translate(693,483)"/>
<path d="M0 0 C3.40295088 7.21035084 6.39132352 14.4654428 9 22 C12.3892177 14.69058717 15.75093623 7.37287547 19 0 C25.93 0.495 25.93 0.495 33 1 C34.08628794 6.4314397 33.70785371 7.59639721 31.61328125 12.48046875 C31.35500046 13.09336258 31.09671967 13.70625641 30.83061218 14.33772278 C30.00346848 16.29312134 29.15856449 18.24022405 28.3125 20.1875 C27.7624434 21.47669008 27.21360349 22.7664 26.66601562 24.05664062 C26.39817764 24.68655914 26.13033966 25.31647766 25.85438538 25.96548462 C25.31972593 27.2229419 24.78508839 28.4804085 24.25047302 29.73788452 C23.09885621 32.44156717 21.93785415 35.13875036 20.73657227 37.82080078 C18.28417255 43.48052335 17.39017917 48.34780997 17.3125 54.5 C17.09038462 62.81923077 17.09038462 62.81923077 16 65 C10.72 65 5.44 65 0 65 C-1.21307318 61.36078046 -0.7096843 59.10879753 -0.234375 55.30859375 C0.5905026 46.34982509 -1.99880982 39.29088281 -5.25 31.0625 C-5.76176629 29.70607563 -6.27089246 28.34865217 -6.77734375 26.99023438 C-8.15513968 23.31507417 -9.57212253 19.65602357 -11 16 C-13.97479943 8.37800852 -13.97479943 8.37800852 -14.1875 5.1875 C-12.51324894 2.10335331 -10.43242652 1.59593359 -7.203125 0.48046875 C-4.7469341 -0.0551899 -2.50651765 -0.08325845 0 0 Z M14 55 C15 59 15 59 15 59 Z " fill="#2DB2D0" transform="translate(200,483)"/>
<path d="M0 0 C2.71484375 -0.328125 2.71484375 -0.328125 5.9375 -0.25 C6.99839844 -0.23453125 8.05929687 -0.2190625 9.15234375 -0.203125 C12 0 12 0 15 1 C15.0981895 10.74258018 15.07429778 20.455573 14.5625 30.1875 C14.52326416 30.95167236 14.48402832 31.71584473 14.44360352 32.50317383 C14.16416184 37.39635315 13.61206078 42.10351375 13 47 C20.59 47 28.18 47 36 47 C36.020625 49.784375 36.04125 52.56875 36.0625 55.4375 C36.071604 56.31591553 36.08070801 57.19433105 36.09008789 58.09936523 C36.09723091 60.06645974 36.05031893 62.03353621 36 64 C34.05584217 65.94415783 30.47109954 65.41681102 27.8125 65.5625 C27.07523682 65.6049585 26.33797363 65.64741699 25.57836914 65.69116211 C15.72427546 66.19621363 5.86309202 66.06874625 -4 66 C-4.10864364 52.52301476 -3.90193223 39.09864281 -3.25537109 25.63623047 C-3.12211258 22.81384511 -3.00428652 19.99104668 -2.88671875 17.16796875 C-2.80300609 15.35933205 -2.71840648 13.55073614 -2.6328125 11.7421875 C-2.59938751 10.90485077 -2.56596252 10.06751404 -2.53152466 9.20480347 C-2.33287763 5.3560862 -2.18002457 3.27003686 0 0 Z " fill="#FFFFFF" transform="translate(269,482)"/>
<path d="M0 0 C4.16413559 0.83282712 6.65536612 1.66079038 10.3125 3.5625 C11.19550781 4.01753906 12.07851563 4.47257813 12.98828125 4.94140625 C13.65214844 5.29074219 14.31601562 5.64007813 15 6 C15 6.66 15 7.32 15 8 C15.66 8.061875 16.32 8.12375 17 8.1875 C21.1216675 9.30378495 24.65750502 11.33761566 28 14 C28 14.66 28 15.32 28 16 C28.59554687 16.0928125 29.19109375 16.185625 29.8046875 16.28125 C32.50876569 17.16657097 33.38690187 18.27960238 35.125 20.5 C37.19887681 23.1880384 37.19887681 23.1880384 40 25 C40.495 26.485 40.495 26.485 41 28 C41.433125 28.433125 41.86625 28.86625 42.3125 29.3125 C51.3649913 38.3649913 55.2077517 50.44669286 55.375 62.9375 C55.2394749 75.23568213 51.43590127 85.09301363 46 96 C45.34 96 44.68 96 44 96 C43.938125 96.54398437 43.87625 97.08796875 43.8125 97.6484375 C42.6370975 101.05032357 40.46405836 103.02793849 38 105.625 C34.61733497 109.02862436 34.61733497 109.02862436 32 113 C32.58394531 113.27070313 33.16789062 113.54140625 33.76953125 113.8203125 C44.4816188 119.48589996 53.32288199 131.61579122 57 143 C63.19877224 163.61765551 58.9505434 182.6494711 51 202 C50.63648438 202.9590625 50.27296875 203.918125 49.8984375 204.90625 C47.74762165 210.57181371 45.07581427 215.78120038 42 221 C41.34 221 40.68 221 40 221 C39.93296875 221.54785156 39.8659375 222.09570312 39.796875 222.66015625 C38.66652099 225.97918591 36.63873501 227.88975156 34.25 230.4375 C33.38890625 231.36433594 32.5278125 232.29117188 31.640625 233.24609375 C29.12767778 235.86684491 26.57378823 238.43916708 24 241 C23.175 241.86625 22.35 242.7325 21.5 243.625 C19.06787414 245.93551957 16.90495203 247.34945907 14 249 C13.16662109 249.61101562 13.16662109 249.61101562 12.31640625 250.234375 C7.18537591 253.95512215 1.74748226 256.69261042 -4 259.3125 C-4.74725342 259.66207764 -5.49450684 260.01165527 -6.2644043 260.37182617 C-11.56441921 262.72230783 -16.21433432 263.60395741 -22 264 C-22 263.34 -22 262.68 -22 262 C-21.3915625 261.87625 -20.783125 261.7525 -20.15625 261.625 C-3.18144078 257.63092724 18.18982291 246.71526564 28 232 C32.48275862 227.17241379 32.48275862 227.17241379 36 226 C36.72498642 224.35786209 37.38107603 222.68497933 38 221 C39.11979988 219.06800793 40.26758154 217.15206097 41.4375 215.25 C44.41144566 210.24385814 46.41595299 205.59075417 48 200 C48.66 200 49.32 200 50 200 C50.103125 199.030625 50.20625 198.06125 50.3125 197.0625 C50.72565509 194.12319667 51.45175163 191.48543223 52.4375 188.6875 C58.23509912 171.91688399 58.63786296 154.24470854 51 138 C45.99432134 128.14143075 45.99432134 128.14143075 38 121 C38 120.34 38 119.68 38 119 C37.13375 118.62875 37.13375 118.62875 36.25 118.25 C33.61711318 116.7872851 31.87549331 115.36173231 30 113 C30.34629755 109.40151672 32.08416165 107.39200147 34.4375 104.75 C35.05496094 104.04359375 35.67242187 103.3371875 36.30859375 102.609375 C38 101 38 101 40 101 C40.25910156 100.31292969 40.51820313 99.62585938 40.78515625 98.91796875 C42.16206476 95.61073192 43.78302445 92.48980466 45.4375 89.3125 C51.97763496 76.28457819 54.77851251 62.84167238 50.375 48.5625 C47.21685687 40.4510587 41.12393943 27.06196971 33 23 C33 22.34 33 21.68 33 21 C32.42636719 20.73316406 31.85273438 20.46632812 31.26171875 20.19140625 C28.91343821 18.95440182 26.93632997 17.52755324 24.8125 15.9375 C17.64101061 10.82579177 9.81436621 7.03122067 2 3 C2 13.89 2 24.78 2 36 C3.32 36.33 4.64 36.66 6 37 C12.77623029 40.85775487 17.94101826 45.34219827 22 52 C22.61875 53.010625 23.2375 54.02125 23.875 55.0625 C26.38683052 61.52149277 26.27668697 71.04568304 23.58203125 77.28125 C23.05996094 78.1784375 22.53789062 79.075625 22 80 C21.443125 80.969375 20.88625 81.93875 20.3125 82.9375 C13.68330211 91.71670802 5.51966652 96.63532707 -5.21484375 98.60546875 C-7.01468921 98.83540496 -7.01468921 98.83540496 -8 100 C-8.04747864 102.18698469 -8.03711025 104.3753148 -8 106.5625 C-7.9569317 111.83298341 -8.16822005 116.80137532 -9 122 C-8.13246094 122.10828125 -7.26492188 122.2165625 -6.37109375 122.328125 C6.57826044 124.90899281 16.686717 133.46026862 24 144 C31.71850338 156.74722528 32.81593511 170.79891679 29.83203125 185.33203125 C28.28985259 190.27713934 25.69182353 194.60266996 23 199 C22.49855469 199.86238281 21.99710937 200.72476563 21.48046875 201.61328125 C20.18475416 203.70215095 18.87234952 205.47596389 17.25 207.3125 C16.72921875 207.90417969 16.2084375 208.49585938 15.671875 209.10546875 C15.12015625 209.73066406 14.5684375 210.35585938 14 211 C13.14148438 212.01513672 13.14148438 212.01513672 12.265625 213.05078125 C7.08529039 219.13652833 2.2133788 223.71750768 -5.16796875 227.0078125 C-7.06707927 227.91277731 -7.06707927 227.91277731 -8.4296875 229.515625 C-10.45946231 231.4343176 -12.25688405 231.89135774 -14.9375 232.625 C-15.79214844 232.86476563 -16.64679688 233.10453125 -17.52734375 233.3515625 C-18.75130859 233.67253906 -18.75130859 233.67253906 -20 234 C-20.72316406 234.23460937 -21.44632812 234.46921875 -22.19140625 234.7109375 C-23.08666016 234.85402344 -23.08666016 234.85402344 -24 235 C-24.66 234.34 -25.32 233.68 -26 233 C-25.29617188 232.81566406 -24.59234375 232.63132812 -23.8671875 232.44140625 C-15.90712896 230.10326895 -9.71062028 226.54984199 -2.93359375 221.92578125 C-0 220 -0 220 3 219 C3 218.34 3 217.68 3 217 C4.50390625 215.58984375 4.50390625 215.58984375 6.5625 213.9375 C16.94567163 205.09529377 26.75448296 191.14404715 27.91015625 177.19140625 C27.93980469 176.46824219 27.96945312 175.74507812 28 175 C28.03996094 174.06027344 28.07992187 173.12054688 28.12109375 172.15234375 C28.43437574 157.575517 24.36782845 147.97536443 14.40234375 137.296875 C10.9090479 133.95694335 7.18263539 131.39688024 3 129 C1.96875 128.401875 0.9375 127.80375 -0.125 127.1875 C-3.41447229 125.82880492 -6.47829655 125.41431805 -10 125 C-11 124 -11 124 -11.11352539 121.40795898 C-11.10828857 120.28204346 -11.10305176 119.15612793 -11.09765625 117.99609375 C-11.09443359 116.78115234 -11.09121094 115.56621094 -11.08789062 114.31445312 C-11.07951172 113.03505859 -11.07113281 111.75566406 -11.0625 110.4375 C-11.05798828 109.15423828 -11.05347656 107.87097656 -11.04882812 106.54882812 C-11.03699545 103.36583978 -11.02051068 100.18294238 -11 97 C-10.18523193 96.80591553 -9.37046387 96.61183105 -8.53100586 96.41186523 C-6.92044312 96.02043335 -6.92044312 96.02043335 -5.27734375 95.62109375 C-4.21507568 95.36513428 -3.15280762 95.1091748 -2.05834961 94.84545898 C6.18281509 92.56724765 13.17221535 88.16380948 18 81 C21.59041336 74.18931899 23.26896896 67.6794501 22 60 C18.26454423 49.25291005 10.05325441 42.0266272 0 37 C0 24.79 0 12.58 0 0 Z " fill="#24AFCF" transform="translate(423,189)"/>
<path d="M0 0 C11.31533292 1.41231496 21.87741343 8.05236433 29.125 16.6875 C39.05305101 29.65553562 41.07522017 41.87190863 39.7578125 57.95703125 C38.74294802 65.19570749 35.78457619 70.81756257 32 77 C31.49855469 77.86238281 30.99710937 78.72476563 30.48046875 79.61328125 C29.18475416 81.70215095 27.87234952 83.47596389 26.25 85.3125 C25.72921875 85.90417969 25.2084375 86.49585938 24.671875 87.10546875 C23.84429687 88.04326172 23.84429687 88.04326172 23 89 C22.14148438 90.01513672 22.14148438 90.01513672 21.265625 91.05078125 C16.08529039 97.13652833 11.2133788 101.71750768 3.83203125 105.0078125 C1.93292073 105.91277731 1.93292073 105.91277731 0.5703125 107.515625 C-1.45946231 109.4343176 -3.25688405 109.89135774 -5.9375 110.625 C-6.79214844 110.86476563 -7.64679688 111.10453125 -8.52734375 111.3515625 C-9.34332031 111.56554687 -10.15929687 111.77953125 -11 112 C-11.72316406 112.23460937 -12.44632812 112.46921875 -13.19140625 112.7109375 C-13.78824219 112.80632812 -14.38507813 112.90171875 -15 113 C-15.66 112.34 -16.32 111.68 -17 111 C-16.29617188 110.81566406 -15.59234375 110.63132812 -14.8671875 110.44140625 C-6.90712896 108.10326895 -0.71062028 104.54984199 6.06640625 99.92578125 C9 98 9 98 12 97 C12 96.34 12 95.68 12 95 C13.50390625 93.58984375 13.50390625 93.58984375 15.5625 91.9375 C25.94567163 83.09529377 35.75448296 69.14404715 36.91015625 55.19140625 C36.95462891 54.10666016 36.95462891 54.10666016 37 53 C37.03996094 52.06027344 37.07992187 51.12054688 37.12109375 50.15234375 C37.43437574 35.575517 33.36782845 25.97536443 23.40234375 15.296875 C19.9090479 11.95694335 16.18263539 9.39688024 12 7 C10.96875 6.401875 9.9375 5.80375 8.875 5.1875 C5.58049501 3.8267262 2.53570895 3.3535709 -1 3 C-0.67 2.01 -0.34 1.02 0 0 Z " fill="#28ADCF" transform="translate(414,311)"/>
<path d="M0 0 C4.16413559 0.83282712 6.65536612 1.66079038 10.3125 3.5625 C11.19550781 4.01753906 12.07851563 4.47257813 12.98828125 4.94140625 C13.65214844 5.29074219 14.31601562 5.64007813 15 6 C15 6.66 15 7.32 15 8 C15.66 8.061875 16.32 8.12375 17 8.1875 C21.1216675 9.30378495 24.65750502 11.33761566 28 14 C28 14.66 28 15.32 28 16 C28.89332031 16.13921875 28.89332031 16.13921875 29.8046875 16.28125 C32.50876569 17.16657097 33.38690187 18.27960238 35.125 20.5 C37.19887681 23.1880384 37.19887681 23.1880384 40 25 C40.495 26.485 40.495 26.485 41 28 C41.495 28.45375 41.99 28.9075 42.5 29.375 C44.43309736 31.46918881 44.62452796 33.22150692 45 36 C41.62781361 32.88721257 39.02712114 29.42129092 36.3671875 25.70703125 C35.09305272 23.87212987 35.09305272 23.87212987 33 23 C33 22.34 33 21.68 33 21 C32.42636719 20.73316406 31.85273438 20.46632812 31.26171875 20.19140625 C28.91343821 18.95440182 26.93632997 17.52755324 24.8125 15.9375 C17.64101061 10.82579177 9.81436621 7.03122067 2 3 C2 13.89 2 24.78 2 36 C1.34 36 0.68 36 0 36 C0 24.12 0 12.24 0 0 Z " fill="#1DBCD5" transform="translate(423,189)"/>
<path d="M0 0 C0.495 1.485 0.495 1.485 1 3 C0.50628906 3.40992188 0.01257813 3.81984375 -0.49609375 4.2421875 C-1.45708984 5.05042969 -1.45708984 5.05042969 -2.4375 5.875 C-3.39462891 6.67550781 -3.39462891 6.67550781 -4.37109375 7.4921875 C-6.10805004 8.9222757 -6.10805004 8.9222757 -7 11 C-8.64821244 12.03013277 -10.32111559 13.02065076 -12 14 C-12.56074219 14.41121094 -13.12148438 14.82242187 -13.69921875 15.24609375 C-18.82503058 18.96205557 -24.25892915 21.69553296 -30 24.3125 C-30.74725342 24.66207764 -31.49450684 25.01165527 -32.2644043 25.37182617 C-37.56441921 27.72230783 -42.21433432 28.60395741 -48 29 C-48 28.34 -48 27.68 -48 27 C-47.3915625 26.87625 -46.783125 26.7525 -46.15625 26.625 C-28.70639845 22.51915258 -12.80900539 12.25330017 0 0 Z " fill="#29A6C5" transform="translate(449,424)"/>
<path d="M0 0 C0 3.72820818 -0.84132013 4.97784819 -3 8 C-6.77476429 11.59919385 -10.41460386 13.88895557 -15.16796875 16.0078125 C-17.06707927 16.91277731 -17.06707927 16.91277731 -18.4296875 18.515625 C-20.45946231 20.4343176 -22.25688405 20.89135774 -24.9375 21.625 C-25.79214844 21.86476563 -26.64679688 22.10453125 -27.52734375 22.3515625 C-28.34332031 22.56554687 -29.15929687 22.77953125 -30 23 C-30.72316406 23.23460937 -31.44632812 23.46921875 -32.19140625 23.7109375 C-32.78824219 23.80632812 -33.38507813 23.90171875 -34 24 C-34.66 23.34 -35.32 22.68 -36 22 C-35.29617188 21.81566406 -34.59234375 21.63132812 -33.8671875 21.44140625 C-25.90712896 19.10326895 -19.71062028 15.54984199 -12.93359375 10.92578125 C-10 9 -10 9 -7 8 C-7 7.34 -7 6.68 -7 6 C-5.46875 4.4921875 -5.46875 4.4921875 -3.5 2.875 C-2.8503125 2.33617187 -2.200625 1.79734375 -1.53125 1.2421875 C-1.0259375 0.83226562 -0.520625 0.42234375 0 0 Z " fill="#28B2D0" transform="translate(433,400)"/>
<path d="M0 0 C1.22589844 0.01353516 1.22589844 0.01353516 2.4765625 0.02734375 C3.41628906 0.04474609 3.41628906 0.04474609 4.375 0.0625 C1.91221199 2.52528801 -0.33176982 3.06021255 -3.625 4.0625 C-3.61339844 4.95710938 -3.60179687 5.85171875 -3.58984375 6.7734375 C-3.53632989 13.94429515 -3.70695017 20.94761384 -4.625 28.0625 C-5.285 28.0625 -5.945 28.0625 -6.625 28.0625 C-6.625 19.1525 -6.625 10.2425 -6.625 1.0625 C-4.21954362 -0.14022819 -2.67503047 -0.03821472 0 0 Z " fill="#22B9D3" transform="translate(418.625,284.9375)"/>
<path d="M0 0 C3.50819292 2.67386624 4.20201587 6.2832238 5.1875 10.375 C5.3618457 11.07947266 5.53619141 11.78394531 5.71582031 12.50976562 C7.21436774 19.02595423 7.41128197 25.32809247 7 32 C6.34 32 5.68 32 5 32 C4.91959473 31.40050537 4.83918945 30.80101074 4.75634766 30.18334961 C4.38453257 27.43398653 4.00482696 24.68576722 3.625 21.9375 C3.43550781 20.52307617 3.43550781 20.52307617 3.2421875 19.08007812 C2.67269022 14.99393517 2.0957918 11.02063187 0.8984375 7.06640625 C0 4 0 4 0 0 Z " fill="#2A96C6" transform="translate(476,326)"/>
<path d="M0 0 C4.29 0 8.58 0 13 0 C13.33 1.32 13.66 2.64 14 4 C9.05 4.33 4.1 4.66 -1 5 C-0.67 3.35 -0.34 1.7 0 0 Z " fill="#F4F1F6" transform="translate(409,564)"/>
<path d="M0 0 C0.77214844 0.00902344 1.54429687 0.01804687 2.33984375 0.02734375 C2.90832031 0.03894531 3.47679687 0.05054688 4.0625 0.0625 C0.71643078 3.40856922 -2.33644057 3.399815 -6.80859375 3.74609375 C-9.49595162 4.14549923 -11.02885235 5.15385235 -12.9375 7.0625 C-13.2675 6.0725 -13.5975 5.0825 -13.9375 4.0625 C-19.5475 3.7325 -25.1575 3.4025 -30.9375 3.0625 C-30.9375 2.7325 -30.9375 2.4025 -30.9375 2.0625 C-29.64714844 2.00191406 -28.35679687 1.94132812 -27.02734375 1.87890625 C-25.30988745 1.79444119 -23.59243998 1.70979623 -21.875 1.625 C-21.02744141 1.58568359 -20.17988281 1.54636719 -19.30664062 1.50585938 C-12.84666707 1.1816136 -6.45833376 -0.09935898 0 0 Z " fill="#B0C6E0" transform="translate(394.9375,422.9375)"/>
<path d="M0 0 C1.74965358 -0.05429959 3.49979787 -0.09292823 5.25 -0.125 C6.22453125 -0.14820313 7.1990625 -0.17140625 8.203125 -0.1953125 C11.0196498 0.00137219 12.60949036 0.55431084 15 2 C15 2.99 15 3.98 15 5 C9.72 4.34 4.44 3.68 -1 3 C-0.67 2.01 -0.34 1.02 0 0 Z " fill="#F8F6F9" transform="translate(384,564)"/>
<path d="M0 0 C-0.66 1.32 -1.32 2.64 -2 4 C-6.29 4 -10.58 4 -15 4 C-14.67 3.01 -14.34 2.02 -14 1 C-9.23692563 0.04738513 -4.8333472 -0.08333357 0 0 Z " fill="#F1EDF5" transform="translate(444,564)"/>
<path d="M0 0 C0.33 0 0.66 0 1 0 C2.70159453 12.66970387 2.70159453 12.66970387 -1 18 C-1.99 18 -2.98 18 -4 18 C-3.79503906 17.45472656 -3.59007812 16.90945313 -3.37890625 16.34765625 C-1.41324021 10.84567235 -0.46218398 5.8235181 0 0 Z " fill="#2B9DC3" transform="translate(446,251)"/>
<path d="M0 0 C4.45942567 1.48647522 6.85972995 4.99451468 9 9 C9.3125 11.9375 9.3125 11.9375 9 14 C6.53522288 11.69806101 4.68244803 9.24011346 2.8125 6.4375 C2.28269531 5.65246094 1.75289063 4.86742187 1.20703125 4.05859375 C0 2 0 2 0 0 Z " fill="#24B6D3" transform="translate(467,314)"/>
<path d="M0 0 C-4.58940328 2.06054841 -9.05410369 3.9537527 -14 5 C-14.99 4.34 -15.98 3.68 -17 3 C-5.12598425 -1.70866142 -5.12598425 -1.70866142 0 0 Z " fill="#5DB7D6" transform="translate(414,419)"/>
<path d="M0 0 C0.33 0 0.66 0 1 0 C1.21755666 5.4389165 1.10428384 9.87080814 -1 15 C-1.99 15 -2.98 15 -4 15 C-3.5359375 13.7625 -3.5359375 13.7625 -3.0625 12.5 C-2.23000075 9.75764953 -1.75120702 7.49568383 -1.4375 4.6875 C-1 1 -1 1 0 0 Z " fill="#2AA5C9" transform="translate(452,363)"/>
<path d="M0 0 C2.49552403 2.27597646 4.06622986 4.60721178 5.6875 7.5625 C6.12449219 8.34753906 6.56148438 9.13257813 7.01171875 9.94140625 C8 12 8 12 8 14 C7.01 14.33 6.02 14.66 5 15 C4.34865075 13.43979133 3.70417036 11.87671421 3.0625 10.3125 C2.70285156 9.44238281 2.34320313 8.57226562 1.97265625 7.67578125 C1.0429688 5.11820735 0.45837375 2.6778677 0 0 Z " fill="#289FC3" transform="translate(468,223)"/>
<path d="M0 0 C-2.55920313 2.55920313 -4.47517679 3.24016221 -8 3.3125 C-11.10984498 3.20226296 -13.35821908 2.76118728 -16 1 C-10.61509359 0.08342019 -5.45769811 -0.11138159 0 0 Z " fill="#8AC7DD" transform="translate(399,423)"/>
<path d="M0 0 C4.1970092 -0.35281338 6.06522073 0.35814568 9.3125 3 C10.00988281 3.556875 10.70726562 4.11375 11.42578125 4.6875 C11.94527344 5.120625 12.46476562 5.55375 13 6 C12.34 6.66 11.68 7.32 11 8 C9.16399255 6.85845641 7.33125195 5.71165684 5.5 4.5625 C4.4790625 3.92441406 3.458125 3.28632813 2.40625 2.62890625 C1.6121875 2.09136719 0.818125 1.55382812 0 1 C0 0.67 0 0.34 0 0 Z " fill="#29A6C8" transform="translate(423,225)"/>
<path d="M0 0 C0 0.33 0 0.66 0 1 C-4.29 1.66 -8.58 2.32 -13 3 C-13 2.01 -13 1.02 -13 0 C-8.34462607 -0.83796731 -4.62921525 -1.0161692 0 0 Z " fill="#87C6E0" transform="translate(401,453)"/>
<path d="M0 0 C0.33 0.99 0.66 1.98 1 3 C-3.02167317 5.96837781 -6.00088076 7.52389341 -11 8 C-7.72291137 4.32966073 -4.28477792 2.30718811 0 0 Z " fill="#40A7CC" transform="translate(420,411)"/>
<path d="M0 0 C0 0.66 0 1.32 0 2 C-3.87684087 3.19287411 -6.91621923 4 -11 4 C-11 3.34 -11 2.68 -11 2 C-7.12315913 0.80712589 -4.08378077 0 0 0 Z " fill="#5BBCDB" transform="translate(412,449)"/>
<path d="M0 0 C-2.09782787 2.09782787 -3.3799207 2.6509396 -6.125 3.625 C-6.84945313 3.88539063 -7.57390625 4.14578125 -8.3203125 4.4140625 C-9.15175781 4.70410156 -9.15175781 4.70410156 -10 5 C-9.6796875 3.08203125 -9.6796875 3.08203125 -9 1 C-5.3931275 -0.64661571 -3.8148779 -1.27162597 0 0 Z " fill="#41ADD0" transform="translate(422,446)"/>
<path d="M0 0 C0.99 0.33 1.98 0.66 3 1 C0.69 3.64 -1.62 6.28 -4 9 C-4.66 8.67 -5.32 8.34 -6 8 C-4.02 5.36 -2.04 2.72 0 0 Z " fill="#25B9D3" transform="translate(437,396)"/>
<path d="M0 0 C0 3.57575896 -1.08840607 5.05295935 -3 8 C-4.32 7.34 -5.64 6.68 -7 6 C-4.69 4.02 -2.38 2.04 0 0 Z " fill="#319EC5" transform="translate(433,400)"/>
<path d="M0 0 C2.97 0 5.94 0 9 0 C6.3144406 2.6855594 3.62378672 3.06049974 0 4 C0 2.68 0 1.36 0 0 Z " fill="#20B9D4" transform="translate(414,285)"/>
<path d="M0 0 C0.33 0.99 0.66 1.98 1 3 C-3.625 6 -3.625 6 -7 6 C-7 5.34 -7 4.68 -7 4 C-4.69 2.68 -2.38 1.36 0 0 Z " fill="#31B7D4" transform="translate(428,440)"/>
<path d="M0 0 C0.33 0.99 0.66 1.98 1 3 C-1.97 5.475 -1.97 5.475 -5 8 C-5.66 7.67 -6.32 7.34 -7 7 C-4.69 4.69 -2.38 2.38 0 0 Z " fill="#28B8D4" transform="translate(449,424)"/>
<path d="M0 0 C0.33 0.99 0.66 1.98 1 3 C1.66 3 2.32 3 3 3 C2.67 6.3 2.34 9.6 2 13 C1.67 13 1.34 13 1 13 C0.67 8.71 0.34 4.42 0 0 Z " fill="#23B4CF" transform="translate(479,337)"/>
<path d="M0 0 C0.99 0 1.98 0 3 0 C2.67 4.62 2.34 9.24 2 14 C1.67 14 1.34 14 1 14 C0.67 9.38 0.34 4.76 0 0 Z " fill="#24B5D3" transform="translate(423,189)"/>
<path d="M0 0 C0.66 0 1.32 0 2 0 C1.38461538 5.53846154 1.38461538 5.53846154 -0.5625 7.875 C-1.036875 8.24625 -1.51125 8.6175 -2 9 C-1.51421457 5.87709365 -1.0013988 3.00419641 0 0 Z " fill="#2B9FC8" transform="translate(469,395)"/>
<path d="M0 0 C1 3 1 3 -0.4375 6.1875 C-1.2109375 7.5796875 -1.2109375 7.5796875 -2 9 C-2.6875 7.3125 -2.6875 7.3125 -3 5 C-1.5625 2.25 -1.5625 2.25 0 0 Z " fill="#23B8D3" transform="translate(449,377)"/>
<path d="M0 0 C1.65 1.65 3.3 3.3 5 5 C4.67 5.99 4.34 6.98 4 8 C0 3.375 0 3.375 0 0 Z " fill="#24B9D5" transform="translate(442,328)"/>
<path d="M0 0 C0.33 0.99 0.66 1.98 1 3 C-1.97 5.475 -1.97 5.475 -5 8 C-4.45773019 4.20411134 -2.79872437 2.52788007 0 0 Z " fill="#2FA3C9" transform="translate(460,292)"/>
<path d="M0 0 C1.98 0.99 1.98 0.99 4 2 C4 2.66 4 3.32 4 4 C5.32 4.33 6.64 4.66 8 5 C7.67 5.66 7.34 6.32 7 7 C3.535 5.02 3.535 5.02 0 3 C0 2.01 0 1.02 0 0 Z " fill="#20A1D2" transform="translate(447,201)"/>
<path d="M0 0 C0.66 0 1.32 0 2 0 C2 0.66 2 1.32 2 2 C2.66 2.33 3.32 2.66 4 3 C0.25 6 0.25 6 -2 6 C-2 5.01 -2 4.02 -2 3 C-1.34 3 -0.68 3 0 3 C0 2.01 0 1.02 0 0 Z " fill="#EEE9F3" transform="translate(463,432)"/>
<path d="M0 0 C0.66 0 1.32 0 2 0 C3.6875 1.8125 3.6875 1.8125 5 4 C4.67 4.99 4.34 5.98 4 7 C2.35 5.02 0.7 3.04 -1 1 C-0.67 0.67 -0.34 0.34 0 0 Z " fill="#2B97CC" transform="translate(437,323)"/>
<path d="M0 0 C4 1 4 1 4 1 Z " fill="#F1DDF5" transform="translate(371,564)"/>
</svg>
